<svg height='100px' width='100px'  fill="#ffffff" xmlns:serif="http://www.serif.com/" xmlns:dc="http://purl.org/dc/elements/1.1/" xmlns:cc="http://creativecommons.org/ns#" xmlns:rdf="http://www.w3.org/1999/02/22-rdf-syntax-ns#" xmlns:svg="http://www.w3.org/2000/svg" xmlns="http://www.w3.org/2000/svg" xmlns:sodipodi="http://sodipodi.sourceforge.net/DTD/sodipodi-0.dtd" xmlns:inkscape="http://www.inkscape.org/namespaces/inkscape" style="" xml:space="preserve" version="1.1" viewBox="0 0 64 64" x="0px" y="0px" fill-rule="evenodd" clip-rule="evenodd" stroke-linejoin="round" stroke-miterlimit="2"><path style="" serif:id="User" d="m 17.04068,33.26868 c 3.665,4.128 9.01,6.731 14.959,6.731 5.949,0 11.294,-2.603 14.959,-6.731 2.423,0.938 4.65,2.376 6.523,4.249 3.533,3.533 5.518,8.324 5.518,13.321 v 3.161 c 0,1.591 -0.632,3.117 -1.757,4.243 -1.126,1.125 -2.652,1.757 -4.243,1.757 h -42 c -1.591,0 -3.117,-0.632 -4.243,-1.757 -1.125,-1.126 -1.757,-2.652 -1.757,-4.243 v -3.161 c 0,-4.997 1.985,-9.788 5.518,-13.321 1.873,-1.873 4.1,-3.311 6.523,-4.249 z" fill="#ffffff"></path><path d="m 31.99968,35.998078 c -8.835671,0 -15.998398,-7.162727 -15.998399,-15.998398 0,-8.835672 7.162727,-15.9983992 15.998399,-15.9983992 8.835671,6e-7 15.998398,7.1627282 15.998398,15.9983992 -10e-7,8.835671 -7.162727,15.998397 -15.998398,15.998398 z" style="" fill="#ffffff" stroke-width="3.6"></path></svg>